<?xml version="1.0" encoding="iso-8859-1"?>
<!-- Uploaded to: SVG Repo, www.svgrepo.com, Generator: SVG Repo Mixer Tools -->
<!DOCTYPE svg PUBLIC "-//W3C//DTD SVG 1.1//EN" "http://www.w3.org/Graphics/SVG/1.1/DTD/svg11.dtd">
<svg fill="#000000" height="800px" width="800px" version="1.1" id="Capa_1" xmlns="http://www.w3.org/2000/svg" xmlns:xlink="http://www.w3.org/1999/xlink" 
	 viewBox="0 0 60 60" xml:space="preserve">
<g>
	<path d="M56,32V21v-5h2v-6h-2V6.013V1.498C56,0.672,55.328,0,54.502,0H52H42h-0.502C40.672,0,40,0.672,40,1.498V10h-2V6.013V1.498
		C38,0.672,37.328,0,36.502,0H34H24h-0.502C22.672,0,22,0.672,22,1.498V10h-2V6.013V1.498C20,0.672,19.328,0,18.502,0H16H6H5.498
		C4.672,0,4,0.672,4,1.498V10H2v6h2v5v11H0v28h60V32H56z M42,46v-4c0.552,0,1-0.448,1-1c0-0.552-0.448-1-1-1v-4c0.552,0,1-0.448,1-1
		c0-0.552-0.448-1-1-1v-4c0.552,0,1-0.448,1-1c0-0.552-0.448-1-1-1v-4c0.552,0,1-0.448,1-1h4c0,0.552,0.448,1,1,1s1-0.448,1-1h4
		c0,0.552,0.448,1,1,1v4c-0.552,0-1,0.448-1,1c0,0.552,0.448,1,1,1v4c-0.552,0-1,0.448-1,1c0,0.552,0.448,1,1,1v4
		c-0.552,0-1,0.448-1,1c0,0.552,0.448,1,1,1v4c-0.552,0-1,0.448-1,1c0,0.437,0.284,0.798,0.674,0.934C52.867,50.295,50.631,52,48,52
		s-4.867-1.705-5.674-4.066C42.716,47.798,43,47.437,43,47C43,46.448,42.552,46,42,46z M54,21H42v-5h12V21z M52,8.5
		C52,7.673,52.673,7,53.5,7c0.188,0,0.356,0.037,0.5,0.09V9.91C53.856,9.963,53.688,10,53.5,10C52.673,10,52,9.327,52,8.5z
		 M49.829,2C49.416,3.164,48.304,4,47,4s-2.416-0.836-2.829-2H49.829z M42.101,2C42.566,4.279,44.586,6,47,6s4.434-1.721,4.899-4H54
		v3.041C53.835,5.017,53.669,5,53.5,5C51.57,5,50,6.57,50,8.5c0,0.539,0.133,1.044,0.351,1.5h-1.402C48.697,7.756,46.81,6,44.5,6
		c-0.925,0-1.784,0.282-2.5,0.762V2H42.101z M46.95,10H42.05c0.232-1.14,1.242-2,2.45-2S46.717,8.86,46.95,10z M40,12h0.183h7.767
		H56v2H40V12z M40,16v5v11h-2V21v-5H40z M36,21H24v-5h12V21z M24,46v-4c0.552,0,1-0.448,1-1c0-0.552-0.448-1-1-1v-4
		c0.552,0,1-0.448,1-1c0-0.552-0.448-1-1-1v-4c0.552,0,1-0.448,1-1c0-0.552-0.448-1-1-1v-4c0.552,0,1-0.448,1-1h4
		c0,0.552,0.448,1,1,1s1-0.448,1-1h4c0,0.552,0.448,1,1,1v4c-0.552,0-1,0.448-1,1c0,0.552,0.448,1,1,1v4c-0.552,0-1,0.448-1,1
		c0,0.552,0.448,1,1,1v4c-0.552,0-1,0.448-1,1c0,0.552,0.448,1,1,1v4c-0.552,0-1,0.448-1,1c0,0.437,0.284,0.798,0.674,0.934
		C34.867,50.295,32.631,52,30,52s-4.867-1.705-5.674-4.066C24.716,47.798,25,47.437,25,47C25,46.448,24.552,46,24,46z M34,8.5
		C34,7.673,34.673,7,35.5,7c0.188,0,0.356,0.037,0.5,0.09V9.91C35.856,9.963,35.688,10,35.5,10C34.673,10,34,9.327,34,8.5z
		 M31.829,2C31.416,3.164,30.304,4,29,4s-2.416-0.836-2.829-2H31.829z M24.101,2C24.566,4.279,26.586,6,29,6s4.434-1.721,4.899-4H36
		v3.041C35.835,5.017,35.669,5,35.5,5C33.57,5,32,6.57,32,8.5c0,0.539,0.133,1.044,0.351,1.5h-1.402C30.697,7.756,28.81,6,26.5,6
		c-0.925,0-1.784,0.282-2.5,0.762V2H24.101z M28.95,10H24.05c0.232-1.14,1.242-2,2.45-2S28.717,8.86,28.95,10z M22,12h0.183h7.767
		H38v2H22V12z M22,16v5v11h-2V21v-5H22z M6,46v-4c0.552,0,1-0.448,1-1c0-0.552-0.448-1-1-1v-4c0.552,0,1-0.448,1-1
		c0-0.552-0.448-1-1-1v-4c0.552,0,1-0.448,1-1c0-0.552-0.448-1-1-1v-4c0.552,0,1-0.448,1-1h4c0,0.552,0.448,1,1,1s1-0.448,1-1h4
		c0,0.552,0.448,1,1,1v4c-0.552,0-1,0.448-1,1c0,0.552,0.448,1,1,1v4c-0.552,0-1,0.448-1,1c0,0.552,0.448,1,1,1v4
		c-0.552,0-1,0.448-1,1c0,0.552,0.448,1,1,1v4c-0.552,0-1,0.448-1,1c0,0.437,0.284,0.798,0.674,0.934C16.867,50.295,14.631,52,12,52
		s-4.867-1.705-5.674-4.066C6.716,47.798,7,47.437,7,47C7,46.448,6.552,46,6,46z M16,8.5C16,7.673,16.673,7,17.5,7
		c0.188,0,0.356,0.037,0.5,0.09V9.91C17.856,9.963,17.688,10,17.5,10C16.673,10,16,9.327,16,8.5z M13.829,2
		C13.416,3.164,12.304,4,11,4S8.584,3.164,8.171,2H13.829z M6.101,2C6.566,4.279,8.586,6,11,6s4.434-1.721,4.899-4H18v3.041
		C17.835,5.017,17.669,5,17.5,5C15.57,5,14,6.57,14,8.5c0,0.539,0.133,1.044,0.351,1.5h-1.402C12.697,7.756,10.81,6,8.5,6
		C7.575,6,6.716,6.282,6,6.762V2H6.101z M10.95,10H6.05C6.283,8.86,7.292,8,8.5,8S10.717,8.86,10.95,10z M4,12h0.183h7.767H20v2H4
		V12z M6,16h12v5H6V16z M58,58H2V34h2v12c0,4.411,3.589,8,8,8s8-3.589,8-8V34h2v12c0,4.411,3.589,8,8,8s8-3.589,8-8V34h2v12
		c0,4.411,3.589,8,8,8s8-3.589,8-8V34h2V58z"/>
	<circle cx="45" cy="26" r="1"/>
	<circle cx="51" cy="26" r="1"/>
	<circle cx="48" cy="29" r="1"/>
	<circle cx="45" cy="32" r="1"/>
	<circle cx="45" cy="38" r="1"/>
	<circle cx="48" cy="35" r="1"/>
	<circle cx="51" cy="32" r="1"/>
	<circle cx="51" cy="38" r="1"/>
	<circle cx="48" cy="41" r="1"/>
	<circle cx="45" cy="44" r="1"/>
	<circle cx="48" cy="47" r="1"/>
	<circle cx="51" cy="44" r="1"/>
	<circle cx="27" cy="26" r="1"/>
	<circle cx="33" cy="26" r="1"/>
	<circle cx="30" cy="29" r="1"/>
	<circle cx="27" cy="32" r="1"/>
	<circle cx="27" cy="38" r="1"/>
	<circle cx="30" cy="35" r="1"/>
	<circle cx="33" cy="32" r="1"/>
	<circle cx="33" cy="38" r="1"/>
	<circle cx="30" cy="41" r="1"/>
	<circle cx="27" cy="44" r="1"/>
	<circle cx="30" cy="47" r="1"/>
	<circle cx="33" cy="44" r="1"/>
	<circle cx="9" cy="26" r="1"/>
	<circle cx="15" cy="26" r="1"/>
	<circle cx="12" cy="29" r="1"/>
	<circle cx="9" cy="32" r="1"/>
	<circle cx="9" cy="38" r="1"/>
	<circle cx="12" cy="35" r="1"/>
	<circle cx="15" cy="32" r="1"/>
	<circle cx="15" cy="38" r="1"/>
	<circle cx="12" cy="41" r="1"/>
	<circle cx="9" cy="44" r="1"/>
	<circle cx="12" cy="47" r="1"/>
	<circle cx="15" cy="44" r="1"/>
</g>
</svg>