<!DOCTYPE svg PUBLIC "-//W3C//DTD SVG 1.1//EN" "http://www.w3.org/Graphics/SVG/1.1/DTD/svg11.dtd">
<!-- Uploaded to: SVG Repo, www.svgrepo.com, Transformed by: SVG Repo Mixer Tools -->
<svg height="800px" width="800px" version="1.1" id="Layer_1" xmlns="http://www.w3.org/2000/svg" xmlns:xlink="http://www.w3.org/1999/xlink" viewBox="0 0 392.598 392.598" xml:space="preserve" fill="#000000">
<g id="SVGRepo_bgCarrier" stroke-width="0"/>
<g id="SVGRepo_tracerCarrier" stroke-linecap="round" stroke-linejoin="round"/>
<g id="SVGRepo_iconCarrier"> <path style="fill:#ffffff;" d="M224.517,92.962c19.653,0,35.556-15.968,35.556-35.556c0-19.653-15.968-35.556-35.556-35.556 C136.469,21.786,64.711,93.479,64.711,181.657c0,19.653,15.968,35.556,35.556,35.556c19.653,0,35.556-15.968,35.556-35.556 C135.822,132.719,175.644,92.962,224.517,92.962z"/> <g> <path style="fill:#000000;" d="M224.517,0C124.38,0,42.861,81.519,42.861,181.657c0,31.612,25.729,57.406,57.406,57.406 c31.612,0,57.406-25.729,57.406-57.406c0-36.848,29.996-66.909,66.909-66.909c31.677,0,57.406-25.729,57.406-57.406 C281.923,25.729,256.194,0,224.517,0z M100.267,217.212c-19.653,0-35.556-15.968-35.556-35.556 c0-88.178,71.693-159.871,159.871-159.871c19.653,0,35.556,15.968,35.556,35.556c0,19.653-15.968,35.556-35.556,35.556 c-48.937,0-88.695,39.822-88.695,88.695C135.822,201.309,119.919,217.212,100.267,217.212z"/> <path style="fill:#000000;" d="M179.329,68.073c1.939-2.133,5.236-3.168,8.145-2.457c5.818,1.552,11.83-1.939,13.317-7.822 c1.552-5.818-1.939-11.83-7.822-13.317c-10.731-2.844-22.497,0.711-29.931,9.051c-4.008,4.461-3.62,11.378,0.84,15.386 C168.404,72.986,175.515,72.404,179.329,68.073z"/> <path style="fill:#000000;" d="M160.194,82.036c-3.814-4.719-10.602-5.495-15.321-1.681c-4.655,3.685-10.925,5.56-16.873,5.042 c-6.012-0.646-11.313,3.879-11.895,9.826c-0.517,6.012,3.879,11.313,9.826,11.895c12.671,0.84,23.402-2.521,32.453-9.762 C163.168,93.543,163.943,86.756,160.194,82.036z"/> <path style="fill:#000000;" d="M231.111,76.024l5.43-3.879c4.848-3.491,6.012-10.279,2.521-15.192 c-3.491-4.978-10.279-6.012-15.192-2.521l-5.43,3.879c-4.848,3.491-6.012,10.279-2.521,15.192 C220.703,80.291,228.654,77.834,231.111,76.024z"/> <path style="fill:#000000;" d="M107.184,167.628c-6.012,0-10.925,4.848-10.925,10.925v11.766c0,6.012,4.848,10.925,10.925,10.925 c6.077,0,10.925-4.848,10.925-10.925v-11.766C118.044,172.477,113.196,167.628,107.184,167.628z"/> <path style="fill:#000000;" d="M109.317,142.028c5.107-3.168,6.659-9.891,3.491-14.998c-3.168-5.107-9.891-6.659-14.998-3.491 l-9.956,6.206c-5.107,3.168-6.659,9.891-3.491,14.998c3.168,5.107,9.891,6.659,14.998,3.491L109.317,142.028z"/> </g> <path style="fill:#ffffff;" d="M292.396,175.321c-19.652,0-35.556,15.968-35.556,35.556c0,48.937-39.822,88.695-88.695,88.695 c-19.653,0-35.556,15.968-35.556,35.556c0,19.653,15.968,35.556,35.556,35.556c88.178,0,159.871-71.693,159.871-159.871 C327.951,191.224,311.984,175.321,292.396,175.321z"/> <g> <path style="fill:#000000;" d="M292.396,153.471c-31.612,0-57.406,25.729-57.406,57.406c0,36.848-29.996,66.909-66.909,66.909 c-31.677,0-57.406,25.729-57.406,57.406c0,31.612,25.729,57.406,57.406,57.406c100.137,0,181.657-81.519,181.657-181.657 C349.802,179.265,324.008,153.471,292.396,153.471z M168.145,370.747c-19.653,0-35.556-15.968-35.556-35.556 c0-19.653,15.968-35.556,35.556-35.556c48.937,0,88.695-39.822,88.695-88.695c0-19.653,15.968-35.556,35.556-35.556 c19.653,0,35.556,15.968,35.556,35.556C327.951,299.055,256.194,370.747,168.145,370.747z"/> <path style="fill:#000000;" d="M213.333,324.461c-1.939,2.133-5.236,3.168-8.145,2.457c-5.818-1.552-11.83,1.939-13.317,7.822 c-1.552,5.818,1.939,11.83,7.822,13.317c10.731,2.844,22.497-0.711,29.931-9.051c4.008-4.461,3.62-11.378-0.84-15.386 C224.259,319.547,217.147,320.129,213.333,324.461z"/> <path style="fill:#000000;" d="M266.667,285.414c-12.671-0.84-23.402,2.521-32.453,9.762c-4.719,3.814-5.495,10.667-1.681,15.321 c3.814,4.719,10.602,5.495,15.321,1.681c4.655-3.685,10.925-5.56,16.873-5.042c6.012,0.646,11.313-3.879,11.895-9.826 C277.01,291.297,272.614,285.996,266.667,285.414z"/> <path style="fill:#000000;" d="M176.679,319.03c-3.943-5.107-9.18-6.982-15.192-2.521l-5.43,3.879 c-4.848,3.491-6.012,10.279-2.521,15.192c3.491,4.913,10.279,6.012,15.192,2.521l5.43-3.879 C179.071,330.796,180.234,324.008,176.679,319.03z"/> <path style="fill:#000000;" d="M296.404,214.044v-11.766c0-6.012-4.848-10.925-10.925-10.925c-6.012,0-10.925,4.848-10.925,10.925 v11.766c0,6.012,4.848,10.925,10.925,10.925C291.555,224.97,296.404,220.057,296.404,214.044z"/> <path style="fill:#000000;" d="M293.301,244.234l-9.956,6.206c-5.107,3.168-6.659,9.891-3.491,14.998 c3.168,5.107,9.891,6.659,14.998,3.491l9.956-6.206c5.107-3.168,6.659-9.891,3.491-14.998 C305.196,242.618,298.473,241.067,293.301,244.234z"/> </g> </g>
</svg>